<?xml version="1.0" encoding="utf-8"?>
<!-- Generator: Adobe Illustrator 19.0.0, SVG Export Plug-In . SVG Version: 6.00 Build 0)  -->
<svg version="1.1" id="Réteg_1" xmlns="http://www.w3.org/2000/svg" xmlns:xlink="http://www.w3.org/1999/xlink" x="0px" y="0px"
	 viewBox="0 0 200 200" style="enable-background:new 0 0 200 200;" xml:space="preserve">
<style type="text/css">
	.st0{fill:#FAA331;}
</style>
<path id="XMLID_56_" class="st0" d="M6.3,7.3C6.5,7,6.5,7,6.9,7.1c1.2,0.5,2.3,0.2,3.3-0.5c1.4-1.1,2.2-2.5,2.5-4.2
	c0.1-0.4,0-0.7-0.1-1.1c-0.3-0.8-1.1-1.3-1.9-1.3c-1-0.1-2,0.4-2.9,0.8C7,1.2,6.3,1.8,5.8,2.5c-0.6,0.9-0.9,1.9-0.4,3
	c0,0.1,0,0.2-0.1,0.3l-4.9,4.3c-0.4,0.4-0.4,1-0.1,1.4l0,0c0.4,0.4,1,0.4,1.3,0L6.3,7.3z"/>
<g id="XMLID_1_">
</g>
<g id="XMLID_2_">
</g>
<g id="XMLID_3_">
</g>
<g id="XMLID_4_">
</g>
<g id="XMLID_5_">
</g>
<g id="XMLID_6_">
</g>
</svg>
